<?xml version="1.0" encoding="utf-8"?>
<!-- Generator: Adobe Illustrator 19.0.0, SVG Export Plug-In . SVG Version: 6.00 Build 0)  -->
<svg version="1.1" id="Layer_1" xmlns="http://www.w3.org/2000/svg" xmlns:xlink="http://www.w3.org/1999/xlink" x="0px" y="0px"
	 viewBox="206 -116 1024 1024" style="enable-background:new 206 -116 1024 1024;" xml:space="preserve">
<g transform="translate(0.000000,1024.000000) scale(0.100000,-0.100000)">
	<path d="M6234,7560c-71-110-216-335-323-501l-194-301l16-28c10-16,95-140,190-277c96-136,209-300,253-363l80-115l746-3l747-2l66-95
		l66-95l-179-278c-98-152-209-325-248-385l-69-107l-655,2l-655,3l-3,259c-2,143-1,270,3,283l5,23h483h483l70,102
		c38,56,70,105,72,110c2,4-296,8-662,8h-666v-503v-504l768-1c422-1,793,2,824,6l56,7l209,320c361,553,425,655,420,668
		c-2,6-39,62-81,122c-43,61-103,147-134,192l-57,82l-745,1h-745l-197,285l-198,284l98,153c54,84,198,307,320,495
		c122,189,222,345,222,348s-58,5-129,5h-128L6234,7560z"/>
	<path d="M6521,7259l-324-500l47-67c25-37,86-123,134-192l88-125l749-5l749-5l84-120c145-205,303-437,308-450c3-7-12-39-32-71
		c-74-117-394-613-492-764l-101-155l117-7c64-4,122-6,129-3c12,4,136,190,341,510c63,99,160,249,215,333l100,153l-57,82
		c-31,45-154,222-274,392l-217,310l-752,5c-737,5-752,5-767,25c-66,87-107,156-100,167c4,7,89,137,189,288c99,151,209,321,245,377
		l65,102h658l657,1v-285v-285h-492h-493l-34-52c-19-29-49-76-68-105l-34-53h676h675v500v500l-832-1h-833L6521,7259z"/>
	<path d="M7017,7278c-30-46-114-175-189-288c-74-113-138-211-142-217c-6-10,21-13,122-13h129l129,195l129,195h453h452v105v105h-515
		h-515L7017,7278z"/>
	<path d="M7430,5793c-20-3-51-44-152-198l-127-195h-451h-450v-105v-105h514h514l69,108c39,59,125,191,192,293
		c66,103,121,192,121,198C7660,5800,7491,5803,7430,5793z"/>
</g>
</svg>
